<svg xmlns="http://www.w3.org/2000/svg" viewBox="0 0 64 64" id="like"><path fill="#222" d="M27.285 58.502h-7.25a6.26 6.26 0 0 1-6.147-5.067L11.2 43.73c-2.39-6.78-1.35-10.389-.054-12.223a5.396 5.396 0 0 1 4.518-2.338h5.94a23.45 23.45 0 0 1 .248-7.356c1.444-5.777 4.607-6.03 5.896-5.87 2.017.248 3.853 2.005 3.853 3.685a11.13 11.13 0 0 0 2.958 8.282c3.01 3.009 8.44 3.814 8.494 3.822a1.5 1.5 0 1 1-.424 2.97c-.263-.037-6.483-.962-10.191-4.67a14.028 14.028 0 0 1-3.837-10.322 1.764 1.764 0 0 0-1.417-.798c-.958.039-1.863 1.396-2.422 3.629-.765 3.06.017 7.835.025 7.882a1.5 1.5 0 0 1-1.48 1.747h-7.643a2.406 2.406 0 0 0-2.067 1.069c-.587.83-1.718 3.422.449 9.54.012.033.022.067.032.1l2.717 9.815c.012.044.022.087.03.131a3.261 3.261 0 0 0 3.21 2.676h7.25c5.52 0 12.885-1.228 14.479-2.873a1.5 1.5 0 0 1 2.154 2.088c-2.996 3.09-13.27 3.785-16.634 3.785Zm1.33-38.76Z"></path><path fill="#222" d="M52.727 58.307h-9.885a1.5 1.5 0 0 1-1.5-1.5V31.273a1.5 1.5 0 0 1 1.5-1.5h9.885a1.5 1.5 0 0 1 1.5 1.5v25.534a1.5 1.5 0 0 1-1.5 1.5zm-8.385-3h6.885V32.773h-6.885zM27.058 12.74a1.5 1.5 0 0 1-1.5-1.5V6.998a1.5 1.5 0 0 1 3 0v4.242a1.5 1.5 0 0 1-1.5 1.5zm7.73 4.386a1.5 1.5 0 0 1-.775-2.785l3.634-2.187a1.5 1.5 0 1 1 1.547 2.57L35.56 16.91a1.495 1.495 0 0 1-.772.215zm-15.46 0a1.494 1.494 0 0 1-.772-.215l-3.635-2.187a1.5 1.5 0 0 1 1.547-2.57l3.635 2.187a1.5 1.5 0 0 1-.775 2.785z"></path></svg>